<?xml version="1.0" standalone="no"?><!DOCTYPE svg PUBLIC "-//W3C//DTD SVG 1.1//EN" "http://www.w3.org/Graphics/SVG/1.1/DTD/svg11.dtd"><svg t="1722087698618" class="icon" viewBox="0 0 1061 1024" version="1.1" xmlns="http://www.w3.org/2000/svg" p-id="19669" xmlns:xlink="http://www.w3.org/1999/xlink" width="265.25" height="256"><path d="M1024.278836 143.220959H802.19632a37.418136 37.418136 0 0 1-37.001116-37.797247c0-20.88895 16.567098-37.835157 37.001116-37.835157h222.082516a36.318718 36.318718 0 0 1 26.461863 10.994184 37.910979 37.910979 0 0 1 10.690896 27.068439 37.986801 37.986801 0 0 1-37.152759 37.569781z m0 198.350243h-290.132724a37.418136 37.418136 0 0 1-37.001116-37.835157c0-20.851039 16.567098-37.797246 37.001116-37.797247h290.132724c13.230932 0 25.438267 7.203086 32.072688 18.917579 6.59651 11.676582 6.59651 26.120665 0 37.797246a36.887383 36.887383 0 0 1-32.072688 18.917579z m0 191.829554h-202.634184a36.887383 36.887383 0 0 1-32.072688-18.917578 38.555466 38.555466 0 0 1 0-37.797246 36.887383 36.887383 0 0 1 32.072688-18.917579h202.634184c20.434018 0 37.001116 16.946208 37.001116 37.835157a37.380225 37.380225 0 0 1-37.001116 37.797246z m0 198.084867h-128.631953a37.380225 37.380225 0 0 1-36.963204-37.759336c0-20.88895 16.567098-37.835157 36.963204-37.835157h128.631953c20.434018 0 37.001116 16.946208 37.001116 37.835157 0 20.851039-16.567098 37.759335-37.001116 37.759336z m0 190.805958H842.381958a37.380225 37.380225 0 0 1-37.001116-37.797246c0-20.88895 16.567098-37.835157 37.001116-37.835157h181.896878c20.434018 0 37.001116 16.946208 37.001116 37.835157a37.380225 37.380225 0 0 1-37.001116 37.797246zM0 895.867629c0-164.419917 89.583644-307.458041 217.646932-371.792973 51.141911 28.622789 102.397555 50.042493 166.429198 50.042492 63.955822 0 115.135644-21.419703 166.505021-57.131846 128.025377 64.372843 217.646932 207.335145 217.646931 371.792973C768.076438 1067.490631 0 1067.490631 0 895.867629z m563.205507-436.31746l75.480759-196.606338c1.17524 95.876866-48.184855 185.005578-129.276439 233.342077a255.89911 255.89911 0 0 1-262.419798 0c-81.091584-48.336498-130.48959-137.465211-129.31435-233.342077 1.857638-145.691893 117.941056-262.798908 260.524249-262.798908 142.583193 0 258.704522 117.107015 260.486338 262.798908l-75.480759 196.606338z" fill="#8D8D8D" p-id="19670"></path></svg>