<?xml version="1.0" standalone="no"?><!DOCTYPE svg PUBLIC "-//W3C//DTD SVG 1.1//EN" "http://www.w3.org/Graphics/SVG/1.1/DTD/svg11.dtd"><svg t="1722086523315" class="icon" viewBox="0 0 1024 1024" version="1.1" xmlns="http://www.w3.org/2000/svg" p-id="15635" xmlns:xlink="http://www.w3.org/1999/xlink" width="256" height="256"><path d="M874.666667 731.733333c-23.466667 0-42.666667-19.2-42.666667-42.666666s19.2-42.666667 42.666667-42.666667c12.8 0 21.333333-8.533333 21.333333-21.333333V192c0-12.8-8.533333-21.333333-21.333333-21.333333H234.666667c-12.8 0-21.333333 8.533333-21.333334 21.333333v21.333333c0 23.466667-19.2 42.666667-42.666666 42.666667s-42.666667-19.2-42.666667-42.666667V192c0-59.733333 46.933333-106.666667 106.666667-106.666667h640c59.733333 0 106.666667 46.933333 106.666666 106.666667v433.066667c0 59.733333-46.933333 106.666667-106.666666 106.666666z" fill="#80B8F8" p-id="15636"></path><path d="M704 275.2H149.333333c-59.733333 0-106.666667 46.933333-106.666666 106.666667v392.533333c0 59.733333 46.933333 106.666667 106.666666 106.666667h29.866667v42.666666c0 25.6 14.933333 49.066667 40.533333 59.733334 8.533333 4.266667 17.066667 4.266667 25.6 4.266666 17.066667 0 32-6.4 44.8-19.2l87.466667-87.466666H704c59.733333 0 106.666667-46.933333 106.666667-106.666667V381.866667c0-57.6-46.933333-106.666667-106.666667-106.666667z m-174.933333 433.066667H221.866667c-23.466667 0-42.666667-19.2-42.666667-42.666667s19.2-42.666667 42.666667-42.666667h307.2c23.466667 0 42.666667 19.2 42.666666 42.666667s-19.2 42.666667-42.666666 42.666667z m102.4-172.8H221.866667c-23.466667 0-42.666667-19.2-42.666667-42.666667s19.2-42.666667 42.666667-42.666667h409.6c23.466667 0 42.666667 19.2 42.666666 42.666667s-19.2 42.666667-42.666666 42.666667z" fill="#80B8F8" p-id="15637"></path></svg>