<?xml version="1.0" standalone="no"?><!DOCTYPE svg PUBLIC "-//W3C//DTD SVG 1.1//EN" "http://www.w3.org/Graphics/SVG/1.1/DTD/svg11.dtd"><svg t="1722588540775" class="icon" viewBox="0 0 1024 1024" version="1.1" xmlns="http://www.w3.org/2000/svg" p-id="12904" xmlns:xlink="http://www.w3.org/1999/xlink" width="256" height="256"><path d="M790.4 553.344c120.192 0 266.24 243.584 215.04 329.472-32.64 54.656-73.6 68.544-171.264 70.272l-15.104 0.192h-173.12l-28.48-0.384c-108.544-2.56-152.832-18.752-164.544-82.816-16.64-91.136 100.096-304.448 210.496-316.16l9.408-0.576h117.568z m-382.208-53.184a205.44 205.44 0 0 1 120.384 41.856 38.4 38.4 0 0 1 1.856 58.88l-5.184 3.84c-57.984 36.224-140.8 250.752-110.464 273.28 27.968 20.8 15.808 63.808-16.576 68.8l-6.272 0.448-148.992 0.192-29.312 0.576c-134.72 2.88-173.824-5.376-203.84-71.936-44.544-98.624 113.28-363.52 247.488-375.552l9.28-0.384h141.632z m382.208 129.984h-117.568c-27.008 0-65.28 36.352-98.816 96.576-28.992 52.16-48.448 113.856-45.568 129.536 2.112 11.392 24.192 18.304 91.84 19.84l25.856 0.384h172.736l25.536-0.384c62.4-1.728 81.088-9.216 95.04-32.64 19.52-32.64-80.192-201.088-142.528-212.672l-6.528-0.64z m-382.208-53.184H266.56c-37.76 0-90.368 46.272-134.144 118.656-38.528 63.744-59.52 133.504-52.608 148.928 10.176 22.528 27.136 27.968 106.432 27.136l72.256-1.152L337.28 870.4l-0.576-9.216c-2.88-79.36 39.36-192.256 91.072-264.128l9.792-12.992 1.856-2.24-2.56-0.832-9.792-2.24-9.6-1.408-9.344-0.448z m317.44-390.464c98.944 0 179.392 78.848 179.392 176.512 0 97.728-80.448 176.576-179.392 176.576-98.88 0-179.328-78.848-179.328-176.576 0-97.664 80.448-176.512 179.328-176.512zM330.304 67.2c114.88 0 208.256 91.52 208.256 204.8 0 113.344-93.44 204.864-208.256 204.864-114.88 0-208.256-91.52-208.256-204.8 0-113.28 93.44-204.8 208.256-204.8z m395.328 196.032c-56.768 0-102.528 44.8-102.528 99.712 0 54.912 45.76 99.776 102.528 99.776 56.832 0 102.592-44.8 102.592-99.776 0-54.912-45.696-99.712-102.592-99.712zM330.304 144c-72.768 0-131.456 57.536-131.456 128 0 70.592 58.688 128.064 131.456 128.064 72.768 0 131.456-57.472 131.456-128 0-70.592-58.688-128-131.456-128z" fill="#787D87" p-id="12905"></path></svg>