<?xml version="1.0" standalone="no"?><!DOCTYPE svg PUBLIC "-//W3C//DTD SVG 1.1//EN" "http://www.w3.org/Graphics/SVG/1.1/DTD/svg11.dtd"><svg t="1722087994097" class="icon" viewBox="0 0 1024 1024" version="1.1" xmlns="http://www.w3.org/2000/svg" p-id="26376" xmlns:xlink="http://www.w3.org/1999/xlink" width="256" height="256"><path d="M408.064 708.096l-61.952-1.024 40.96 190.464 80.896-52.224 56.832-101.376c-45.568-14.336-96.256-30.208-115.2-36.352-0.512 0.512-1.024 0.512-1.536 0.512z" fill="#BB32FF" p-id="26377"></path><path d="M549.888 752.128l-35.328 63.488 77.824-50.176c-11.264-3.584-26.112-8.192-42.496-13.312z" fill="#FC708A" p-id="26378"></path><path d="M678.4 710.144l4.096-45.568c-24.064-10.24-46.08-20.992-65.536-31.744L563.2 729.088c24.576 8.192 45.056 15.36 55.808 18.944l59.392-37.888z" fill="#BB32FF" p-id="26379"></path><path d="M321.024 676.352L291.84 542.72c0-1.024-0.512-2.048 0-3.072l16.384-109.056c-15.36-4.608-29.696-8.704-40.448-10.24-24.576-4.096-85.504 5.632-107.008 10.24h-3.584L138.24 509.952c3.584 0 7.168 2.048 8.704 6.144l55.296 157.184 118.784 3.072zM908.8 587.776l-79.872-177.152-109.056 38.912-17.408 195.584c29.184 4.608 88.064 11.264 112.64-0.512 36.864-17.92 99.84-26.112 102.4-26.624h1.024l-1.024-24.576h-0.512c-3.584-0.512-6.656-2.56-8.192-5.632z" fill="#FC708A" p-id="26380"></path><path d="M369.664 901.632L327.68 706.56l-114.176-2.048 43.52 122.88c0.512 2.048 0.512 4.096 0 6.144l112.64 68.096zM698.368 486.912l-68.608 122.88c23.04 13.824 43.008 23.552 55.296 29.184l13.312-152.064zM174.08 672.768l-44.032-125.952-29.184 123.904z" fill="#FFB634" p-id="26381"></path><path d="M293.376 399.872l18.432 6.144 2.56-15.872c0-1.536 1.024-3.072 2.048-4.096L190.976 286.208l-19.968 84.48-8.704 36.864c18.944-5.12 87.552-22.016 131.072-7.68zM915.456 548.352l-3.072-67.584-54.784-59.392z" fill="#BB32FF" p-id="26382"></path><path d="M185.344 704l-89.6-1.536h-2.048L87.04 732.16l137.216 81.92-38.912-110.08z" fill="#FC708A" p-id="26383"></path><path d="M919.552 642.56c-6.656 1.024-67.072 9.728-94.72 25.088-0.512 0-0.512 0.512-1.024 0.512-13.824 6.144-32.256 8.192-52.224 8.192-23.552 0-49.152-3.072-71.68-6.656l-4.608 48.64c0 1.536-0.512 3.072-1.536 4.096l236.544 157.696-10.752-237.568zM339.456 676.864l71.168 1.536c2.56 0 4.608 1.024 6.144 2.56 19.968 5.632 73.216 23.552 121.344 39.424l56.832-100.352c-94.72-57.344-130.56-117.76-142.336-143.872l-14.848 10.24c-3.072 2.048-7.68 2.048-10.752-0.512l-30.72-24.064h-0.512c-0.512 0-34.816-13.824-70.144-25.6l-15.872 104.448 29.696 136.192zM722.944 417.28l98.304-29.184c0.512-1.536 1.536-3.072 2.56-4.096l-89.088-97.792-11.776 131.072z" fill="#FFB634" p-id="26384"></path><path d="M715.264 295.424L473.6 461.824c25.6 56.32 83.968 102.912 134.656 135.168l95.232-169.472 11.776-132.096zM337.92 415.232l-8.192-6.656-0.512 3.584c3.072 1.024 6.144 2.048 8.704 3.072z" fill="#FC708A" p-id="26385"></path><path d="M325.632 293.376c0-103.424 83.456-186.88 186.88-186.88s186.88 83.456 186.88 186.88-186.88 310.784-186.88 310.784-186.88-207.872-186.88-310.784z" fill="#3378FE" p-id="26386"></path><path d="M514.048 304.64m-62.464 0a62.464 62.464 0 1 0 124.928 0 62.464 62.464 0 1 0-124.928 0Z" fill="#FFFFFF" p-id="26387"></path></svg>