<?xml version="1.0" standalone="no"?><!DOCTYPE svg PUBLIC "-//W3C//DTD SVG 1.1//EN" "http://www.w3.org/Graphics/SVG/1.1/DTD/svg11.dtd"><svg t="1722087284034" class="icon" viewBox="0 0 1024 1024" version="1.1" xmlns="http://www.w3.org/2000/svg" p-id="17593" xmlns:xlink="http://www.w3.org/1999/xlink" width="256" height="256"><path d="M837.76 88.32H710.4V44.8c0-24.96-20.48-44.8-44.8-44.8-24.96 0-44.8 19.84-44.8 44.8v43.52H390.4V44.8c0-24.96-20.48-44.8-44.8-44.8-24.96 0-44.8 19.84-44.8 44.8v43.52H186.24c-67.2 0-122.24 54.4-122.24 121.6v691.84c0 67.2 55.04 122.24 122.24 122.24h651.52c67.2 0 122.24-55.04 122.24-122.24V209.92c0-67.2-55.04-121.6-122.24-121.6z m29.44 813.44c0 16-13.44 28.8-28.8 28.8H186.24c-16 0-28.8-13.44-28.8-28.8V394.88h709.76v506.88z m0-596.48h-710.4V209.92c0-16 13.44-28.8 28.8-28.8h115.2V211.2c0 24.32 19.84 44.8 44.8 44.8 24.32 0 44.8-20.48 44.8-44.8v-30.08h230.4V211.2c0 24.32 19.84 44.8 44.8 44.8 24.32 0 44.8-20.48 44.8-44.8v-30.08h127.36c16 0 28.8 13.44 28.8 28.8v95.36z" fill="#00A29A" p-id="17594"></path><path d="M424.96 794.88c8.32 8.32 19.84 12.8 30.72 12.16 10.88 0.64 22.4-3.84 30.72-12.16l217.6-217.6c16-16 16-42.88 0-58.88s-42.88-16-58.88 0l-190.08 190.08-61.44-61.44c-16-16-42.88-16-58.88 0-16 16-16 42.88 0 58.88l90.24 88.96z" fill="#00A29A" p-id="17595"></path></svg>